<svg width="13" height="13" viewBox="0 0 13 13" fill="none" xmlns="http://www.w3.org/2000/svg">
<path d="M8.473 6.295c-.706-.035-1.412-.035-2.118-.035 0-.706 0-1.412-.034-2.118l-.035-.99c0-.343-.034-.638-.034-.98h-.273c-.035.342-.035.637-.035.98l-.034.99c0 .273 0 .546 0 .819-.102-.239-.204-.512-.341-.751l-.444-.91c-.137-.307-.273-.58-.443-.854l-.273.103c.102.307.24.614.376.956l.41.922c.102.273.205.512.308.751-.24-.205-.478-.376-.683-.58l-.717-.649c-.24-.239-.478-.444-.75-.683l-.205.205c.239.239.478.478.717.717l.614.716c.205.205.376.41.58.58-.358-.102-.683-.205-.99-.308l-.922-.341c-.307-.103-.614-.24-.956-.342l-.103.273c.307.137.614.273.922.41l.91.444c.24.102.512.205.752.341-.273 0-.547 0-.82 0l-.99.034c-.342 0-.637.034-.98.034v.273c.343.035.638.035.98.035l.99.034c.58.034 1.185.069 1.791.069 0 .58 0 1.185.035 1.791l.034.99c.035.343.035.638.069.98h.273c.034-.342.034-.637.068-.98l.035-.99c0-.273 0-.547.034-.854.103.273.24.512.342.785l.614.956c.137.307.274.614.445.854l.273-.137c-.137-.307-.24-.614-.41-.957l-.444-.921c-.103-.273-.205-.512-.308-.786.205.24.41.41.614.649l.717.717c.24.239.478.444.75.683l.205-.17c-.239-.239-.478-.478-.717-.717l-.614-.717c-.307-.307-.479-.478-.718-.683.376.102.649.205.99.308l.922.41c.307.102.614.239.956.342l.137-.273c-.342-.137-.614-.24-.956-.376l-.922-.444c-.307-.137-.512-.205-.785-.341.307 0 .58 0 .956-.035l.99-.034c.342-.034.637-.034.98-.069v-.273c-.343-.034-.638-.034-.98-.068l-.99.034z" fill="#AFB1B3"/>
<path d="M6.5 0C2.91 0 0 2.91 0 6.5S2.91 13 6.5 13 13 10.09 13 6.5 10.09 0 6.5 0zm0 12.387c-3.245 0-5.887-2.642-5.887-5.887S3.255.613 6.5.613s5.887 2.642 5.887 5.887-2.642 5.887-5.887 5.887z" fill="#AFB1B3"/>
</svg>
