<?xml version="1.0" encoding="UTF-8"?>
<svg xmlns="http://www.w3.org/2000/svg" width="13pt" height="13pt" viewBox="0 0 13 13" version="1.1">
  <g id="surface1">
    <path style=" stroke:none;fill-rule:nonzero;fill:rgb(0%,0%,0%);fill-opacity:1;"
          d="M 8.75 7.199219 C 8.242188 7.199219 7.789062 7.425781 7.480469 7.777344 L 6.683594 7.214844 C 6.765625 6.980469 6.816406 6.730469 6.816406 6.46875 C 6.816406 6.210938 6.769531 5.96875 6.6875 5.738281 L 7.480469 5.179688 C 7.792969 5.53125 8.246094 5.753906 8.75 5.753906 C 9.683594 5.753906 10.445312 4.992188 10.445312 4.058594 C 10.445312 3.125 9.683594 2.363281 8.75 2.363281 C 7.816406 2.363281 7.054688 3.125 7.054688 4.058594 C 7.054688 4.226562 7.082031 4.386719 7.125 4.539062 L 6.332031 5.097656 C 6 4.6875 5.519531 4.398438 4.976562 4.3125 L 4.976562 3.351562 C 5.742188 3.191406 6.320312 2.507812 6.320312 1.695312 C 6.320312 0.761719 5.5625 0 4.625 0 C 3.691406 0 2.933594 0.761719 2.933594 1.695312 C 2.933594 2.5 3.496094 3.171875 4.246094 3.34375 L 4.246094 4.316406 C 3.222656 4.496094 2.4375 5.390625 2.4375 6.46875 C 2.4375 7.550781 3.230469 8.453125 4.261719 8.625 L 4.261719 9.652344 C 3.503906 9.816406 2.933594 10.496094 2.933594 11.304688 C 2.933594 12.238281 3.691406 13 4.625 13 C 5.5625 13 6.320312 12.238281 6.320312 11.304688 C 6.320312 10.496094 5.75 9.816406 4.992188 9.652344 L 4.992188 8.625 C 5.523438 8.535156 5.992188 8.253906 6.324219 7.851562 L 7.125 8.417969 C 7.078125 8.570312 7.054688 8.730469 7.054688 8.894531 C 7.054688 9.828125 7.816406 10.589844 8.75 10.589844 C 9.683594 10.589844 10.445312 9.828125 10.445312 8.894531 C 10.445312 7.960938 9.683594 7.199219 8.75 7.199219 Z M 8.75 3.238281 C 9.203125 3.238281 9.570312 3.605469 9.570312 4.058594 C 9.570312 4.511719 9.203125 4.882812 8.75 4.882812 C 8.296875 4.882812 7.929688 4.511719 7.929688 4.058594 C 7.929688 3.605469 8.296875 3.238281 8.75 3.238281 Z M 3.804688 1.695312 C 3.804688 1.242188 4.171875 0.875 4.625 0.875 C 5.078125 0.875 5.449219 1.242188 5.449219 1.695312 C 5.449219 2.148438 5.078125 2.515625 4.625 2.515625 C 4.171875 2.515625 3.804688 2.148438 3.804688 1.695312 Z M 5.449219 11.304688 C 5.449219 11.757812 5.078125 12.125 4.625 12.125 C 4.171875 12.125 3.804688 11.757812 3.804688 11.304688 C 3.804688 10.851562 4.171875 10.484375 4.625 10.484375 C 5.078125 10.484375 5.449219 10.851562 5.449219 11.304688 Z M 4.625 7.617188 C 3.996094 7.617188 3.480469 7.101562 3.480469 6.46875 C 3.480469 5.835938 3.996094 5.324219 4.625 5.324219 C 5.257812 5.324219 5.773438 5.835938 5.773438 6.46875 C 5.773438 7.101562 5.257812 7.617188 4.625 7.617188 Z M 8.75 9.714844 C 8.296875 9.714844 7.929688 9.347656 7.929688 8.894531 C 7.929688 8.441406 8.296875 8.074219 8.75 8.074219 C 9.203125 8.074219 9.570312 8.441406 9.570312 8.894531 C 9.570312 9.347656 9.203125 9.714844 8.75 9.714844 Z M 8.75 9.714844 "/>
  </g>
</svg>
