<svg width="16" height="16" viewBox="0 0 16 16" fill="none" xmlns="http://www.w3.org/2000/svg">
<path d="M10.4293 7.74867C9.71727 7.70681 9.00519 7.70681 8.29319 7.70681C8.29319 6.99481 8.29319 6.28272 8.25132 5.57069L8.20939 4.35603C8.20939 3.93718 8.16752 3.56021 8.16752 3.14136H7.83246C7.79059 3.56021 7.79059 3.93718 7.79059 4.35603L7.74866 5.57069C7.74866 5.90577 7.74866 6.24085 7.74866 6.57592C7.62299 6.28272 7.49733 5.94766 7.33299 5.65446L6.82719 4.52357C6.65952 4.14661 6.49214 3.76964 6.28272 3.43456L5.94764 3.56022C6.07329 3.93718 6.2417 4.31414 6.36649 4.73299L6.78533 5.86389C6.91099 6.19896 7.03666 6.49215 7.16226 6.78533C6.91099 6.53404 6.65968 6.32461 6.45026 6.07331L5.57068 5.23561C5.27748 4.94242 4.98429 4.69111 4.64921 4.39792L4.39789 4.64922C4.64921 4.94242 4.94241 5.23561 5.23561 5.57069L6.07329 6.4503C6.32461 6.70161 6.53403 6.95289 6.78533 7.16231C6.49214 7.03666 6.15706 6.91099 5.86387 6.78534L4.73298 6.36649C4.35602 6.24085 3.97905 6.07331 3.56021 5.94766L3.43455 6.28273C3.81151 6.4503 4.18848 6.61781 4.52355 6.78534L5.65445 7.33299C5.94764 7.45555 6.28272 7.58111 6.57591 7.74867C6.24083 7.74867 5.90575 7.74867 5.57068 7.74867L4.35602 7.79059C3.9305 7.79059 3.56021 7.83246 3.13469 7.83246V8.16753C3.56021 8.20939 3.9305 8.20939 4.35602 8.20939L5.57068 8.25133C6.28272 8.25133 6.99473 8.29319 7.70681 8.29319C7.70681 9.00526 7.70681 9.71727 7.74867 10.4293L7.79059 11.644C7.83246 12.0629 7.83246 12.4398 7.87433 12.8587H8.16753C8.20939 12.4398 8.20939 12.0629 8.25133 11.644L8.29319 10.4293C8.29319 10.0943 8.29319 9.75919 8.33506 9.38222C8.46072 9.71727 8.62826 10.0105 8.75393 10.3455L9.25986 11.4765C9.42739 11.8534 9.59493 12.2304 9.8011 12.5655L10.0943 12.4398C9.96859 12.0629 9.84293 11.6859 9.67539 11.267L9.25986 10.1361C9.13419 9.80107 9.00853 9.50788 8.88293 9.17281C9.13419 9.42407 9.38553 9.63353 9.63679 9.88479L10.5164 10.7225C10.8096 11.0157 11.1028 11.267 11.4378 11.5602L11.644 11.3508C11.3927 11.0576 11.0995 10.7644 10.8063 10.4293L9.96859 9.59163C9.71726 9.34038 9.50786 9.08905 9.25653 8.87963C9.59493 9.00473 9.88486 9.13039 10.2199 9.25605L11.3508 9.67493C11.7277 9.80053 12.1047 9.96806 12.5235 10.0937L12.6492 9.80053C12.2722 9.63493 11.8953 9.46739 11.5602 9.34173L10.4293 8.79366C10.0943 8.66786 9.8011 8.54233 9.46593 8.37479C9.8011 8.37479 10.1361 8.37479 10.5164 8.20939L11.7311 8.16753C12.1466 8.12566 12.5235 8.12566 12.9424 8.08379V7.79059C12.5235 7.74866 12.1466 7.74866 11.7311 7.70681L10.4293 7.74867Z" fill="#6C707E"/>
<path d="M8 0C3.60209 0 0 3.60209 0 8C0 12.3979 3.60209 16 8 16C12.3979 16 16 12.3979 16 8C16 3.60209 12.3979 0 8 0ZM8 15.2461C4.02094 15.2461 0.753926 11.979 0.753926 8C0.753926 4.02094 4.02094 0.753926 8 0.753926C11.979 0.753926 15.2461 4.02094 15.2461 8C15.2461 12.0209 11.9543 15.2461 8 15.2461Z" fill="#6C707E"/>
</svg>
