<svg width="40" height="40" viewBox="0 0 40 40" fill="none" xmlns="http://www.w3.org/2000/svg">
  <rect x="27" y="27" width="13" height="13" fill="black"/>
  <rect x="30" y="36" width="5" height="1" fill="white"/>
  <path fill-rule="evenodd" clip-rule="evenodd"
        d="M7.25 27.75C7.25 28.5428 6.72287 29.2124 6 29.4276V30.4586C6.63796 30.5686 7.19569 30.9131 7.58132 31.4001L8.77608 30.8027C8.75894 30.7044 8.75 30.6032 8.75 30.5C8.75 29.5335 9.5335 28.75 10.5 28.75C11.4665 28.75 12.25 29.5335 12.25 30.5C12.25 31.4665 11.4665 32.25 10.5 32.25C9.99652 32.25 9.5427 32.0374 9.22342 31.697L8.03831 32.2896C8.10281 32.5152 8.13735 32.7535 8.13735 32.9998C8.13735 33.2463 8.10279 33.4846 8.03826 33.7103L9.2235 34.3029C9.54277 33.9626 9.99656 33.75 10.5 33.75C11.4665 33.75 12.25 34.5335 12.25 35.5C12.25 36.4665 11.4665 37.25 10.5 37.25C9.5335 37.25 8.75 36.4665 8.75 35.5C8.75 35.3967 8.75894 35.2956 8.7761 35.1972L7.5812 34.5998C7.19558 35.0867 6.6379 35.4311 6 35.5411V36.5725C6.72287 36.7876 7.25 37.4573 7.25 38.25C7.25 39.2165 6.4665 40 5.5 40C4.5335 40 3.75 39.2165 3.75 38.25C3.75 37.4551 4.27998 36.784 5.00586 36.5707V35.5195C3.84708 35.2665 2.97949 34.2345 2.97949 32.9998C2.97949 31.7652 3.84708 30.7332 5.00586 30.4802V29.4293C4.27998 29.216 3.75 28.5449 3.75 27.75C3.75 26.7835 4.5335 26 5.5 26C6.4665 26 7.25 26.7835 7.25 27.75ZM5.5 28.5C5.91421 28.5 6.25 28.1642 6.25 27.75C6.25 27.3358 5.91421 27 5.5 27C5.08579 27 4.75 27.3358 4.75 27.75C4.75 28.1642 5.08579 28.5 5.5 28.5ZM5.55842 34.5169C6.39625 34.5169 7.07544 33.8377 7.07544 32.9998C7.07544 32.162 6.39625 31.4828 5.55842 31.4828C4.7206 31.4828 4.0414 32.162 4.0414 32.9998C4.0414 33.8377 4.7206 34.5169 5.55842 34.5169ZM6.25 38.25C6.25 38.6642 5.91421 39 5.5 39C5.08579 39 4.75 38.6642 4.75 38.25C4.75 37.8358 5.08579 37.5 5.5 37.5C5.91421 37.5 6.25 37.8358 6.25 38.25ZM11.25 30.5C11.25 30.9142 10.9142 31.25 10.5 31.25C10.0858 31.25 9.75 30.9142 9.75 30.5C9.75 30.0858 10.0858 29.75 10.5 29.75C10.9142 29.75 11.25 30.0858 11.25 30.5ZM10.5 36.25C10.9142 36.25 11.25 35.9142 11.25 35.5C11.25 35.0858 10.9142 34.75 10.5 34.75C10.0858 34.75 9.75 35.0858 9.75 35.5C9.75 35.9142 10.0858 36.25 10.5 36.25Z"
        fill="#CED0D6"/>
  <path
    d="M20 4H4V23.2C4.64622 23.0689 5.31507 23 6 23C11.5228 23 16 27.4772 16 33C16 34.0452 15.8396 35.053 15.5422 36H20C21.744 36 23.4252 35.7172 25 35.1952V25H35.1952C35.7172 23.4252 36 21.744 36 20C36 11.1999 28.8001 4 20 4Z"
    fill="#231F20"/>
  <path
    d="M20 4H4V23.2C4.64622 23.0689 5.31507 23 6 23C11.5228 23 16 27.4772 16 33C16 34.0452 15.8396 35.053 15.5422 36H20C21.744 36 23.4252 35.7172 25 35.1952V25H35.1952C35.7172 23.4252 36 21.744 36 20C36 11.1999 28.8001 4 20 4Z"
    fill="url(#paint0_linear_8180_12445)"/>
  <defs>
    <linearGradient id="paint0_linear_8180_12445" x1="-11.5402" y1="8.48699" x2="6.40365" y2="35.6797" gradientUnits="userSpaceOnUse">
      <stop stop-color="#FF45ED"/>
      <stop offset="1" stop-color="#6B57FF"/>
    </linearGradient>
  </defs>
</svg>
